<?xml version="1.0" encoding="UTF-8" standalone="no"?>
<svg
   xmlns:dc="http://purl.org/dc/elements/1.1/"
   xmlns:cc="http://creativecommons.org/ns#"
   xmlns:rdf="http://www.w3.org/1999/02/22-rdf-syntax-ns#"
   xmlns:svg="http://www.w3.org/2000/svg"
   xmlns="http://www.w3.org/2000/svg"
   xmlns:sodipodi="http://sodipodi.sourceforge.net/DTD/sodipodi-0.dtd"
   xmlns:inkscape="http://www.inkscape.org/namespaces/inkscape"
   version="1.1"
   viewBox="0 0 200.09178 28.974608"
   id="svg3383"
   inkscape:version="0.48.5 r10040"
   sodipodi:docname="drodbar.svg"
   width="200.0918"
   height="28.974607">
  <metadata
     id="metadata3390">
    <rdf:RDF>
      <cc:Work
         rdf:about="">
        <dc:format>image/svg+xml</dc:format>
        <dc:type
           rdf:resource="http://purl.org/dc/dcmitype/StillImage" />
        <dc:title></dc:title>
      </cc:Work>
    </rdf:RDF>
  </metadata>
  <defs
     id="defs3388" />
  <sodipodi:namedview
     pagecolor="#ffffff"
     bordercolor="#666666"
     borderopacity="1"
     objecttolerance="10"
     gridtolerance="10"
     guidetolerance="10"
     inkscape:pageopacity="0"
     inkscape:pageshadow="2"
     inkscape:window-width="1440"
     inkscape:window-height="855"
     id="namedview3386"
     showgrid="false"
     fit-margin-top="0"
     fit-margin-left="0"
     fit-margin-right="0"
     fit-margin-bottom="0"
     inkscape:zoom="6.9760823"
     inkscape:cx="122.89994"
     inkscape:cy="15.104814"
     inkscape:window-x="0"
     inkscape:window-y="1"
     inkscape:window-maximized="1"
     inkscape:current-layer="svg3383" />
  <path
     style="font-size:30px;font-style:normal;font-variant:normal;font-weight:bold;font-stretch:normal;line-height:125%;letter-spacing:0px;word-spacing:0px;fill:#ffffff;fill-opacity:1;stroke:none;font-family:Linux Biolinum Kb;-inkscape-font-specification:Linux Biolinum Kb Bold"
     d="m 177.89426,0.28669387 c -1.17433,2.226e-5 -2.10814,0.32135184 -2.76574,0.98515503 -0.64823,0.6542251 -0.96201,1.6105172 -0.96201,2.8323206 l 0,20.9345425 c 0,1.327647 0.31002,2.297409 0.90187,2.893893 0.59185,0.596475 1.52943,0.892791 2.82588,0.892797 l 18.21789,0 c 1.27763,-6e-6 2.16823,-0.275157 2.67555,-0.86201 0.50727,-0.577246 0.7816,-1.568171 0.78163,-2.92468 l 0,-20.9345425 c -3e-5,-1.2891479 -0.38144,-2.2685296 -1.14237,-2.8938928 -0.76099,-0.62532056 -1.81318,-0.92356057 -3.15656,-0.92358283 l -17.37614,0 z"
     id="path3086"
     inkscape:connector-curvature="0" />
  <path
     inkscape:connector-curvature="0"
     id="path3088"
     d="m 149.22487,0.28669387 c -1.17433,2.226e-5 -2.10814,0.32135184 -2.76574,0.98515503 -0.64823,0.6542251 -0.96201,1.6105172 -0.96201,2.8323206 l 0,20.9345425 c 0,1.327647 0.31002,2.297409 0.90187,2.893893 0.59185,0.596475 1.52943,0.892791 2.82588,0.892797 l 18.21789,0 c 1.27763,-6e-6 2.16823,-0.275157 2.67555,-0.86201 0.50727,-0.577246 0.7816,-1.568171 0.78163,-2.92468 l 0,-20.9345425 c -3e-5,-1.2891479 -0.38144,-2.2685296 -1.14237,-2.8938928 -0.76099,-0.62532056 -1.81318,-0.92356057 -3.15656,-0.92358283 l -17.37614,0 z"
     style="font-size:30px;font-style:normal;font-variant:normal;font-weight:bold;font-stretch:normal;line-height:125%;letter-spacing:0px;word-spacing:0px;fill:#ffffff;fill-opacity:1;stroke:none;font-family:Linux Biolinum Kb;-inkscape-font-specification:Linux Biolinum Kb Bold" />
  <path
     style="font-size:30px;font-style:normal;font-variant:normal;font-weight:bold;font-stretch:normal;line-height:125%;letter-spacing:0px;word-spacing:0px;fill:#ffffff;fill-opacity:1;stroke:none;font-family:Linux Biolinum Kb;-inkscape-font-specification:Linux Biolinum Kb Bold"
     d="m 120.26879,0.28669387 c -1.17433,2.226e-5 -2.10814,0.32135184 -2.76574,0.98515503 -0.64823,0.6542251 -0.96201,1.6105172 -0.96201,2.8323206 l 0,20.9345425 c 0,1.327647 0.31002,2.297409 0.90187,2.893893 0.59185,0.596475 1.52943,0.892791 2.82588,0.892797 l 18.21789,0 c 1.27763,-6e-6 2.16823,-0.275157 2.67555,-0.86201 0.50727,-0.577246 0.7816,-1.568171 0.78163,-2.92468 l 0,-20.9345425 c -3e-5,-1.2891479 -0.38144,-2.2685296 -1.14237,-2.8938928 -0.76099,-0.62532056 -1.81318,-0.92356057 -3.15656,-0.92358283 l -17.37614,0 z"
     id="path3090"
     inkscape:connector-curvature="0" />
  <path
     inkscape:connector-curvature="0"
     id="path3092"
     d="m 91.312709,0.28669387 c -1.17433,2.226e-5 -2.10814,0.32135184 -2.76574,0.98515503 -0.64823,0.6542251 -0.96201,1.6105172 -0.96201,2.8323206 l 0,20.9345425 c 0,1.327647 0.31002,2.297409 0.90187,2.893893 0.59185,0.596475 1.52943,0.892791 2.82588,0.892797 l 18.217891,0 c 1.27763,-6e-6 2.16823,-0.275157 2.67555,-0.86201 0.50727,-0.577246 0.7816,-1.568171 0.78163,-2.92468 l 0,-20.9345425 c -3e-5,-1.2891479 -0.38144,-2.2685296 -1.14237,-2.8938928 -0.76099,-0.62532056 -1.81318,-0.92356057 -3.15656,-0.92358283 l -17.376141,0 z"
     style="font-size:30px;font-style:normal;font-variant:normal;font-weight:bold;font-stretch:normal;line-height:125%;letter-spacing:0px;word-spacing:0px;fill:#ffffff;fill-opacity:1;stroke:none;font-family:Linux Biolinum Kb;-inkscape-font-specification:Linux Biolinum Kb Bold" />
  <path
     style="font-size:30px;font-style:normal;font-variant:normal;font-weight:bold;font-stretch:normal;line-height:125%;letter-spacing:0px;word-spacing:0px;fill:#ffffff;fill-opacity:1;stroke:none;font-family:Linux Biolinum Kb;-inkscape-font-specification:Linux Biolinum Kb Bold"
     d="m 62.069934,0.28669387 c -1.17433,2.226e-5 -2.10814,0.32135184 -2.76574,0.98515503 -0.64823,0.6542251 -0.96201,1.6105172 -0.96201,2.8323206 l 0,20.9345425 c 0,1.327647 0.31002,2.297409 0.90187,2.893893 0.59185,0.596475 1.52943,0.892791 2.82588,0.892797 l 18.217891,0 c 1.27763,-6e-6 2.16823,-0.275157 2.67555,-0.86201 0.50727,-0.577246 0.7816,-1.568171 0.78163,-2.92468 l 0,-20.9345425 c -3e-5,-1.2891479 -0.38144,-2.2685296 -1.14237,-2.8938928 -0.76099,-0.62532056 -1.81318,-0.92356057 -3.15656,-0.92358283 l -17.376141,0 z"
     id="path3094"
     inkscape:connector-curvature="0" />
  <path
     inkscape:connector-curvature="0"
     id="path3096"
     d="m 33.2572,0.28669387 c -1.17433,2.226e-5 -2.10814,0.32135184 -2.76574,0.98515503 -0.64823,0.6542251 -0.96201,1.6105172 -0.96201,2.8323206 l 0,20.9345425 c 0,1.327647 0.31002,2.297409 0.90187,2.893893 0.59185,0.596475 1.52943,0.892791 2.82588,0.892797 l 18.217891,0 c 1.27763,-6e-6 2.16823,-0.275157 2.67555,-0.86201 0.50727,-0.577246 0.7816,-1.568171 0.78163,-2.92468 l 0,-20.9345425 c -3e-5,-1.2891479 -0.38144,-2.2685296 -1.14237,-2.8938928 -0.76099,-0.62532056 -1.81318,-0.92356057 -3.15656,-0.92358283 l -17.376141,0 z"
     style="font-size:30px;font-style:normal;font-variant:normal;font-weight:bold;font-stretch:normal;line-height:125%;letter-spacing:0px;word-spacing:0px;fill:#ffffff;fill-opacity:1;stroke:none;font-family:Linux Biolinum Kb;-inkscape-font-specification:Linux Biolinum Kb Bold" />
  <path
     style="font-size:30px;font-style:normal;font-variant:normal;font-weight:bold;font-stretch:normal;line-height:125%;letter-spacing:0px;word-spacing:0px;fill:#ffffff;fill-opacity:1;stroke:none;font-family:Linux Biolinum Kb;-inkscape-font-specification:Linux Biolinum Kb Bold"
     d="m 4.1577721,0.28669387 c -1.17433,2.226e-5 -2.10814,0.32135184 -2.76574,0.98515503 C 0.74380215,1.926074 0.43002215,2.8823661 0.43002215,4.1041695 l 0,20.9345425 c 0,1.327647 0.31002,2.297409 0.90186995,2.893893 0.59185,0.596475 1.52943,0.892791 2.82588,0.892797 l 18.2178909,0 c 1.27763,-6e-6 2.16823,-0.275157 2.67555,-0.86201 0.50727,-0.577246 0.7816,-1.568171 0.78163,-2.92468 l 0,-20.9345425 c -3e-5,-1.2891479 -0.38144,-2.2685296 -1.14237,-2.8938928 -0.76099,-0.62532056 -1.81318,-0.92356057 -3.15656,-0.92358283 l -17.3761409,0 z"
     id="path3098"
     inkscape:connector-curvature="0" />
  <path
     inkscape:connector-curvature="0"
     style="font-size:30px;font-style:normal;font-variant:normal;font-weight:bold;font-stretch:normal;line-height:125%;letter-spacing:0px;word-spacing:0px;fill:#02a2a8;fill-opacity:1;stroke:none;font-family:Linux Biolinum Kb;-inkscape-font-specification:Linux Biolinum Kb Bold"
     d="M 3.8749897,0 C 2.6542803,2.2617188e-5 1.6835781,0.32619415 0.99998972,1 0.3261576,1.6640834 -1.3879153e-5,2.6347856 -1.0275637e-5,3.875 l 0,21.25 C -1.3879153e-5,26.472652 0.32225144,27.457027 0.93748972,28.0625 1.552719,28.667963 2.5273273,28.968744 3.8749897,28.96875 l 18.9375003,0 c 1.328097,-6e-6 2.253878,-0.279303 2.78125,-0.875 0.527314,-0.585943 0.81247,-1.591801 0.8125,-2.96875 l 0,-21.25 C 26.40621,2.5664263 26.009726,1.5722866 25.21874,0.9375 24.427697,0.30275668 23.333948,2.2617188e-5 21.93749,0 L 3.8749897,0 z m 0,1.09375 17.1562503,0 c 0.878881,2.15e-5 1.515599,0.2187713 1.90625,0.6875 0.390598,0.4590047 0.562473,1.1660353 0.5625,2.09375 l 0,20.34375 c -2.7e-5,0.898435 -0.181667,1.525388 -0.5625,1.90625 -0.380885,0.380856 -1.007838,0.593745 -1.90625,0.59375 l -17.1562503,0 c -0.927741,-5e-6 -1.6250058,-0.203129 -2.09375,-0.59375 -0.4687549,-0.390628 -0.7187547,-1.027346 -0.71875,-1.90625 l 0,-20.34375 C 1.062485,2.9765821 1.3027192,2.291036 1.7812397,1.8125 2.2695151,1.3340057 2.9765456,1.0937715 3.8749897,1.09375 z M 16.03124,5.625 c -0.283222,0.1172044 -0.695331,0.2265792 -1.28125,0.34375 -0.576189,0.117204 -1.113298,0.18947 -1.5625,0.21875 l -0.0625,0.09375 c 0.156235,0.8593905 0.249983,2.2441545 0.25,4.1875 l 0,1.46875 c -0.664079,-0.322255 -1.228531,-0.468739 -1.6875,-0.46875 -0.976576,1.1e-5 -1.9023575,0.228526 -2.7812503,0.6875 -0.8789179,0.449228 -1.5996203,1.076181 -2.15625,1.90625 -0.5468849,0.82032 -0.8125096,1.732429 -0.8125,2.71875 -9.6e-6,1.367192 0.421865,2.500004 1.28125,3.4375 0.8691289,0.927736 1.9257684,1.406251 3.1562503,1.40625 0.54686,1e-6 1.066391,-0.14453 1.59375,-0.4375 0.527328,-0.292967 1.005842,-0.722654 1.40625,-1.25 l 0.03125,0 0.125,1.4375 c -1.7e-5,0.03906 0.07225,0.0625 0.21875,0.0625 0.390607,-0.03906 0.777325,-0.0625 1.1875,-0.0625 0.585918,0 1.054667,0.02344 1.40625,0.0625 l 0.0625,-0.0625 C 16.142549,19.92969 15.999971,18.474613 15.99999,17 l 0,-6.9375 c -1.9e-5,-1.5234238 0.08396,-2.9199064 0.25,-4.21875 C 16.24997,5.687517 16.1777,5.625017 16.03124,5.625 z m -4.5625,7.03125 c 0.341782,10e-6 0.60936,0.06056 0.84375,0.1875 0.234359,0.117197 0.435531,0.250009 0.5625,0.40625 0.126937,0.146494 0.285139,0.398447 0.5,0.75 l 0,4.75 c -0.410173,0.507816 -0.816423,0.857425 -1.1875,1.0625 -0.371109,0.205081 -0.781265,0.312503 -1.25,0.3125 -0.664076,3e-6 -1.2050918,-0.310544 -1.6250003,-0.90625 -0.4101687,-0.605464 -0.6250123,-1.556635 -0.625,-2.875 -1.23e-5,-0.644524 0.091784,-1.187492 0.21875,-1.65625 0.1269405,-0.468741 0.261706,-0.839835 0.4375,-1.09375 C 9.5292734,13.339853 9.7675539,13.146494 10.03124,13 c 0.273423,-0.146475 0.513658,-0.24218 0.71875,-0.28125 0.214829,-0.03905 0.455064,-0.06249 0.71875,-0.0625 z"
     id="path3041" />
  <path
     inkscape:connector-curvature="0"
     id="path3043"
     style="font-size:30px;font-style:normal;font-variant:normal;font-weight:bold;font-stretch:normal;line-height:125%;letter-spacing:0px;word-spacing:0px;fill:#02a2a8;fill-opacity:1;stroke:none;font-family:Linux Biolinum Kb;-inkscape-font-specification:Linux Biolinum Kb Bold"
     d="m 55.326161,25.136719 c -3e-5,1.376949 -0.263701,2.358393 -0.791015,2.944336 -0.527373,0.595697 -1.455106,0.893548 -2.783204,0.893554 l -18.955078,0 c -1.347662,-6e-6 -2.329106,-0.30274 -2.944336,-0.908203 -0.615238,-0.605473 -0.922855,-1.582035 -0.922851,-2.929687 l 0,-21.2695315 c -4e-6,-1.2402144 0.33691,-2.1923619 1.010742,-2.8564453 C 30.624007,0.33693634 31.576155,2.2617188e-5 32.796864,0 l 18.061524,0 c 1.396457,2.2617188e-5 2.490206,0.31740511 3.28125,0.95214844 0.790986,0.63478666 1.186493,1.60646536 1.186523,2.91503906 l 0,21.2695315 M 32.796864,1.0839844 c -0.898444,2.15e-5 -1.591802,0.2392791 -2.080078,0.7177734 -0.47852,0.478536 -0.717778,1.1670118 -0.717773,2.0654297 l 0,20.3466795 c -5e-6,0.878904 0.23437,1.513669 0.703125,1.904297 0.468744,0.390621 1.166985,0.585933 2.094726,0.585938 l 17.153321,0 c 0.898412,-5e-6 1.538059,-0.190434 1.918945,-0.57129 0.380832,-0.380862 0.571262,-1.02051 0.571289,-1.918945 l 0,-20.3466795 C 52.440392,2.9394728 52.24508,2.2461141 51.854481,1.7871094 51.46383,1.3183807 50.829065,1.0840059 49.950185,1.0839844 l -17.153321,0 M 40.838856,13.31543 c 0.32225,-0.488272 0.742172,-0.927724 1.259766,-1.31836 0.527327,-0.400379 1.035139,-0.600574 1.523438,-0.600586 0.22459,1.2e-5 0.53709,0.05861 0.9375,0.175782 l 0.08789,0.05859 -0.454101,2.109375 -0.175782,0.05859 c -0.26369,-0.2246 -0.693377,-0.336905 -1.289062,-0.336914 -0.136736,9e-6 -0.292986,0.01954 -0.46875,0.05859 -0.166033,0.03907 -0.366228,0.117196 -0.600586,0.234375 -0.234391,0.10743 -0.429703,0.302743 -0.585938,0.585937 -0.156265,0.273446 -0.23439,0.61036 -0.234375,1.010743 l 0,1.96289 c -1.5e-5,1.708988 0.06834,3.066409 0.205079,4.072266 l -0.0293,0.05859 c -0.576187,-0.03906 -1.113296,-0.05859 -1.611328,-0.05859 l -1.450196,0.05859 0,-0.05859 c 0.146472,-1.025389 0.219714,-2.382809 0.219727,-4.072266 l 0,-1.333008 c -1.3e-5,-1.367179 -0.112318,-2.685537 -0.336914,-3.955078 l 0.0293,-0.05859 c 0.449205,-0.02929 0.947252,-0.102528 1.49414,-0.219726 0.546861,-0.117177 0.966782,-0.234364 1.259766,-0.351563 0.146469,1.2e-5 0.219711,0.07814 0.219726,0.234375 l -0.05859,1.684571 0.05859,0" />
  <path
     inkscape:connector-curvature="0"
     id="path3045"
     style="font-size:30px;font-style:normal;font-variant:normal;font-weight:bold;font-stretch:normal;line-height:125%;letter-spacing:0px;word-spacing:0px;fill:#02a2a8;fill-opacity:1;stroke:none;font-family:Linux Biolinum Kb;-inkscape-font-specification:Linux Biolinum Kb Bold"
     d="m 84.197255,25.136719 c -3e-5,1.376949 -0.263702,2.358393 -0.791016,2.944336 -0.527372,0.595697 -1.455106,0.893548 -2.783203,0.893554 l -18.955078,0 c -1.347662,-6e-6 -2.329107,-0.30274 -2.944336,-0.908203 -0.615238,-0.605473 -0.922855,-1.582035 -0.922851,-2.929687 l 0,-21.2695315 c -4e-6,-1.2402144 0.33691,-2.1923619 1.010742,-2.8564453 C 59.495101,0.33693634 60.447249,2.2617188e-5 61.667958,0 l 18.061523,0 c 1.396458,2.2617188e-5 2.490207,0.31740511 3.28125,0.95214844 0.790986,0.63478666 1.186494,1.60646536 1.186524,2.91503906 l 0,21.2695315 M 61.667958,1.0839844 c -0.898444,2.15e-5 -1.591803,0.2392791 -2.080078,0.7177734 -0.478521,0.478536 -0.717778,1.1670118 -0.717774,2.0654297 l 0,20.3466795 c -4e-6,0.878904 0.234371,1.513669 0.703125,1.904297 0.468745,0.390621 1.166986,0.585933 2.094727,0.585938 l 17.15332,0 c 0.898412,-5e-6 1.53806,-0.190434 1.918946,-0.57129 0.380832,-0.380862 0.571262,-1.02051 0.571289,-1.918945 l 0,-20.3466795 C 81.311486,2.9394728 81.116173,2.2461141 80.725575,1.7871094 80.334924,1.3183807 79.700159,1.0840059 78.821278,1.0839844 l -17.15332,0 M 70.09081,12.568359 c -0.37111,1e-5 -0.688492,0.06837 -0.952149,0.205079 -0.263686,0.126962 -0.473647,0.292978 -0.629883,0.498046 -0.146498,0.195322 -0.263686,0.463876 -0.351562,0.805664 -0.07814,0.33204 -0.13185,0.654305 -0.161133,0.966797 -0.01954,0.312508 -0.02931,0.688484 -0.0293,1.12793 -1.4e-5,0.419928 0.0098,0.795904 0.0293,1.12793 0.02928,0.32227 0.09276,0.688481 0.19043,1.098632 0.107407,0.410161 0.244126,0.751957 0.410156,1.025391 0.175767,0.263675 0.42479,0.493167 0.74707,0.688477 0.332016,0.185549 0.722641,0.278322 1.171875,0.27832 1.298811,2e-6 1.948224,-1.098629 1.948242,-3.295898 -1.8e-5,-1.630853 -0.166033,-2.792961 -0.498046,-3.486329 -0.322283,-0.693349 -0.947283,-1.040029 -1.875,-1.040039 m -5.009766,4.145508 c -1.1e-5,-1.572258 0.468739,-2.846671 1.40625,-3.823242 0.937487,-0.976552 2.202134,-1.464833 3.793945,-1.464844 0.898421,1.1e-5 1.689436,0.151378 2.373047,0.454102 0.683575,0.302745 1.210918,0.708018 1.582031,1.21582 0.380839,0.498056 0.659159,1.035165 0.834961,1.611328 0.185526,0.566414 0.278299,1.162116 0.278321,1.78711 -2.2e-5,0.61524 -0.107443,1.215825 -0.322266,1.801757 -0.214864,0.585942 -0.527364,1.123051 -0.9375,1.611329 -0.410176,0.488283 -0.952167,0.88379 -1.625977,1.186523 -0.66408,0.29297 -1.411149,0.439454 -2.24121,0.439453 -1.591812,1e-6 -2.846693,-0.473631 -3.764649,-1.420898 -0.91798,-0.947262 -1.376964,-2.080074 -1.376953,-3.398438" />
  <path
     inkscape:connector-curvature="0"
     id="path3047"
     style="font-size:30px;font-style:normal;font-variant:normal;font-weight:bold;font-stretch:normal;line-height:125%;letter-spacing:0px;word-spacing:0px;fill:#02a2a8;fill-opacity:1;stroke:none;font-family:Linux Biolinum Kb;-inkscape-font-specification:Linux Biolinum Kb Bold"
     d="m 113.36131,25.136719 c -3e-5,1.376949 -0.2637,2.358393 -0.79101,2.944336 -0.52738,0.595697 -1.45511,0.893548 -2.78321,0.893554 l -18.955065,0 c -1.34767,-6e-6 -2.32911,-0.30274 -2.94434,-0.908203 -0.615239,-0.605473 -0.922856,-1.582035 -0.922852,-2.929687 l 0,-21.2695315 c -4e-6,-1.2402144 0.33691,-2.1923619 1.010742,-2.8564453 C 88.659165,0.33693634 89.611315,2.2617188e-5 90.832025,0 l 18.061515,0 c 1.39646,2.2617188e-5 2.49021,0.31740511 3.28125,0.95214844 0.79098,0.63478666 1.18649,1.60646536 1.18652,2.91503906 l 0,21.2695315 M 90.832025,1.0839844 c -0.89845,2.15e-5 -1.59181,0.2392791 -2.08008,0.7177734 -0.47852,0.478536 -0.71778,1.1670118 -0.71778,2.0654297 l 0,20.3466795 c 0,0.878904 0.23437,1.513669 0.70313,1.904297 0.46874,0.390621 1.16698,0.585933 2.09473,0.585938 l 17.153315,0 c 0.89841,-5e-6 1.53806,-0.190434 1.91894,-0.57129 0.38083,-0.380862 0.57126,-1.02051 0.57129,-1.918945 l 0,-20.3466795 c -3e-5,-0.9277147 -0.19534,-1.6210734 -0.58594,-2.0800781 -0.39065,-0.4687287 -1.02541,-0.7031035 -1.90429,-0.703125 l -17.153315,0 m 9.506825,18.8671876 c -0.400405,0.527346 -0.864265,0.937502 -1.391595,1.230469 -0.52736,0.29297 -1.06447,0.439454 -1.61133,0.439453 -1.23048,1e-6 -2.28028,-0.463866 -3.14941,-1.391602 -0.85939,-0.937496 -1.28907,-2.089839 -1.28906,-3.457031 -10e-6,-0.986321 0.27342,-1.889641 0.82031,-2.709961 0.55663,-0.830069 1.2744,-1.469717 2.15332,-1.918945 0.87889,-0.458974 1.80662,-0.688466 2.7832,-0.688477 0.45897,1.1e-5 1.02049,0.161144 1.684565,0.483399 l 0,-1.464844 c -2e-5,-1.9433455 -0.0781,-3.3447113 -0.23437,-4.2041018 l 0.0586,-0.087891 c 0.4492,-0.02928 0.9619,-0.1025225 1.53809,-0.2197265 0.58591,-0.1171708 1.02048,-0.2343581 1.30371,-0.3515625 0.14646,1.7e-5 0.2197,0.078142 0.21972,0.234375 -0.16603,1.2988436 -0.24904,2.709975 -0.24902,4.2333988 l 0,6.928711 c -2e-5,1.474613 0.13182,2.934573 0.39551,4.379883 l -0.0586,0.05859 c -0.35158,-0.03906 -0.82033,-0.05859 -1.40625,-0.05859 -0.41017,1e-6 -0.81056,0.01953 -1.20117,0.05859 -0.1465,2e-6 -0.21974,-0.01953 -0.21972,-0.05859 l -0.11719,-1.435547 -0.0293,0 m 0,-1.201172 0,-4.746094 c -0.21486,-0.351553 -0.385755,-0.600576 -0.512685,-0.74707 -0.12697,-0.156241 -0.30764,-0.292959 -0.542,-0.410156 -0.23439,-0.126944 -0.52247,-0.19042 -0.86425,-0.19043 -0.26369,10e-6 -0.50295,0.01954 -0.71778,0.05859 -0.20509,0.03907 -0.44435,0.131845 -0.71777,0.27832 -0.26369,0.146494 -0.4883,0.346689 -0.67383,0.600586 -0.17579,0.253915 -0.32716,0.615243 -0.4541,1.083984 -0.12697,0.468758 -0.19044,1.025398 -0.19043,1.669922 -1e-5,1.318365 0.20507,2.280278 0.61523,2.885742 0.41991,0.595706 0.9619,0.893558 1.62598,0.893555 0.46874,3e-6 0.88866,-0.102536 1.25977,-0.307617 0.37107,-0.205075 0.7617,-0.56152 1.171865,-1.069336" />
  <path
     inkscape:connector-curvature="0"
     id="path3049"
     style="font-size:30px;font-style:normal;font-variant:normal;font-weight:bold;font-stretch:normal;line-height:125%;letter-spacing:0px;word-spacing:0px;fill:#02a2a8;fill-opacity:1;stroke:none;font-family:Linux Biolinum Kb;-inkscape-font-specification:Linux Biolinum Kb Bold"
     d="m 142.291,25.136719 c -3e-5,1.376949 -0.2637,2.358393 -0.79102,2.944336 -0.52737,0.595697 -1.4551,0.893548 -2.7832,0.893554 l -18.95508,0 c -1.34766,-6e-6 -2.3291,-0.30274 -2.94433,-0.908203 -0.61524,-0.605473 -0.92286,-1.582035 -0.92285,-2.929687 l 0,-21.2695315 c -1e-5,-1.2402144 0.33691,-2.1923619 1.01074,-2.8564453 C 117.58885,0.33693634 118.54099,2.2617188e-5 119.7617,0 l 18.06153,0 c 1.39645,2.2617188e-5 2.4902,0.31740511 3.28125,0.95214844 0.79098,0.63478666 1.18649,1.60646536 1.18652,2.91503906 l 0,21.2695315 M 119.7617,1.0839844 c -0.89844,2.15e-5 -1.5918,0.2392791 -2.08008,0.7177734 -0.47852,0.478536 -0.71777,1.1670118 -0.71777,2.0654297 l 0,20.3466795 c 0,0.878904 0.23437,1.513669 0.70313,1.904297 0.46874,0.390621 1.16698,0.585933 2.09472,0.585938 l 17.15332,0 c 0.89842,-5e-6 1.53806,-0.190434 1.91895,-0.57129 0.38083,-0.380862 0.57126,-1.02051 0.57129,-1.918945 l 0,-20.3466795 c -3e-5,-0.9277147 -0.19534,-1.6210734 -0.58594,-2.0800781 -0.39065,-0.4687287 -1.02542,-0.7031035 -1.9043,-0.703125 l -17.15332,0 m 6.5625,8.90625 0,2.6074216 c 0.71288,-0.80077 1.6455,-1.20116 2.79785,-1.201172 0.67382,1.2e-5 1.34764,0.17091 2.02149,0.512696 0.67381,0.341807 1.24998,0.859385 1.72851,1.552734 0.4785,0.693368 0.71776,1.474617 0.71778,2.34375 -2e-5,0.849615 -0.1758,1.645513 -0.52735,2.387695 -0.35158,0.732426 -0.8008,1.333011 -1.34765,1.801758 -0.53713,0.458987 -1.12307,0.820314 -1.75781,1.083985 -0.62502,0.263673 -1.23537,0.395509 -1.83106,0.395507 -0.86915,2e-6 -1.62599,-0.278319 -2.27051,-0.834961 -0.0684,0.0586 -0.24903,0.190432 -0.54199,0.395508 -0.28322,0.195314 -0.46388,0.351564 -0.54199,0.46875 -0.67384,1e-6 -1.084,-0.0293 -1.23047,-0.08789 0.0781,-0.458983 0.11718,-1.049803 0.11719,-1.772461 l 0,-9.243164 c -1e-5,-1.9140487 -0.0684,-3.3202973 -0.20508,-4.2187504 l 0.0293,-0.058594 c 1.15233,-0.1171709 2.09959,-0.3076004 2.84179,-0.5712891 0.14647,1.71e-5 0.21972,0.068376 0.21973,0.2050781 -0.1465,1.1425939 -0.21974,2.5537253 -0.21973,4.2333985 m 0,9.2431639 c 0.51757,0.693363 1.07909,1.040042 1.68457,1.040039 1.02538,3e-6 1.75292,-0.336911 2.18262,-1.010742 0.42967,-0.683589 0.64451,-1.704096 0.64453,-3.061523 -2e-5,-1.074211 -0.19045,-1.909171 -0.57129,-2.504883 -0.38087,-0.595694 -0.9131,-0.893545 -1.59668,-0.893555 -0.95704,1e-5 -1.73829,0.31251 -2.34375,0.9375 l 0,5.493164" />
  <path
     inkscape:connector-curvature="0"
     id="path3051"
     style="font-size:30px;font-style:normal;font-variant:normal;font-weight:bold;font-stretch:normal;line-height:125%;letter-spacing:0px;word-spacing:0px;fill:#02a2a8;fill-opacity:1;stroke:none;font-family:Linux Biolinum Kb;-inkscape-font-specification:Linux Biolinum Kb Bold"
     d="m 171.16209,25.136719 c -3e-5,1.376949 -0.2637,2.358393 -0.79101,2.944336 -0.52737,0.595697 -1.45511,0.893548 -2.78321,0.893554 l -18.95507,0 c -1.34767,-6e-6 -2.32911,-0.30274 -2.94434,-0.908203 -0.61524,-0.605473 -0.92285,-1.582035 -0.92285,-2.929687 l 0,-21.2695315 c 0,-1.2402144 0.33691,-2.1923619 1.01074,-2.8564453 C 146.45994,0.33693634 147.41209,2.2617188e-5 148.6328,0 l 18.06152,0 c 1.39646,2.2617188e-5 2.49021,0.31740511 3.28125,0.95214844 0.79099,0.63478666 1.18649,1.60646536 1.18652,2.91503906 l 0,21.2695315 M 148.6328,1.0839844 c -0.89845,2.15e-5 -1.59181,0.2392791 -2.08008,0.7177734 -0.47852,0.478536 -0.71778,1.1670118 -0.71777,2.0654297 l 0,20.3466795 c -1e-5,0.878904 0.23437,1.513669 0.70312,1.904297 0.46874,0.390621 1.16699,0.585933 2.09473,0.585938 l 17.15332,0 c 0.89841,-5e-6 1.53806,-0.190434 1.91894,-0.57129 0.38083,-0.380862 0.57126,-1.02051 0.57129,-1.918945 l 0,-20.3466795 c -3e-5,-0.9277147 -0.19534,-1.6210734 -0.58594,-2.0800781 -0.39065,-0.4687287 -1.02541,-0.7031035 -1.90429,-0.703125 l -17.15332,0 M 160.83495,19.40918 c -2e-5,0.214846 0.0537,0.385745 0.16113,0.512695 0.1074,0.11719 0.23435,0.175784 0.38086,0.175781 0.0879,3e-6 0.17576,-0.02441 0.26367,-0.07324 0.0976,-0.04883 0.20994,-0.12695 0.33691,-0.234375 0.1367,-0.107419 0.20994,-0.166013 0.21973,-0.175781 l 0.0586,0.05859 c 0.166,0.07813 0.32713,0.278323 0.4834,0.600585 -0.67385,0.839846 -1.51857,1.259767 -2.53418,1.259766 -0.47853,1e-6 -0.87404,-0.122069 -1.18652,-0.366211 -0.30275,-0.253904 -0.50295,-0.571287 -0.60059,-0.952148 l -0.0293,0 c -0.97658,0.878908 -2.01662,1.31836 -3.12012,1.318359 -0.84962,1e-6 -1.54298,-0.205077 -2.08008,-0.615234 -0.53712,-0.41992 -0.80567,-1.025388 -0.80566,-1.816407 -1e-5,-0.732417 0.37596,-1.406245 1.12793,-2.021484 0.7617,-0.615228 1.70408,-1.059564 2.82714,-1.333008 l 1.97754,-0.483398 c 0.0879,7e-6 0.13182,-0.08788 0.13184,-0.263672 -2e-5,-0.839835 -0.14162,-1.440421 -0.4248,-1.801758 -0.28322,-0.361318 -0.73244,-0.541982 -1.34766,-0.541992 -0.49806,10e-6 -0.9717,0.161143 -1.4209,0.483398 -0.43947,0.322275 -0.81544,0.751962 -1.12793,1.289063 l -0.51269,-0.0293 -0.60059,-1.479492 0.0879,-0.08789 c 0.35155,-0.31249 0.88866,-0.624989 1.61133,-0.9375 0.72264,-0.312489 1.4453,-0.468739 2.16797,-0.46875 0.54686,1.1e-5 1.0449,0.05861 1.49414,0.175782 0.4492,0.107432 0.874,0.292979 1.27441,0.55664 0.40037,0.253917 0.71287,0.634776 0.9375,1.142578 0.23436,0.498056 0.35154,1.093758 0.35156,1.78711 -2e-5,0.03907 -0.0195,0.708014 -0.0586,2.006836 -0.0293,1.289066 -0.044,2.06055 -0.0439,2.314453 m -2.3877,-3.032227 -1.80176,0.483399 c -0.58595,0.156255 -0.99611,0.405278 -1.23047,0.74707 -0.22462,0.341801 -0.33692,0.771488 -0.33691,1.289062 -1e-5,0.332035 0.0928,0.629886 0.27832,0.893555 0.1953,0.263675 0.45409,0.39551 0.77637,0.395508 0.4785,2e-6 1.11814,-0.31738 1.91894,-0.952149 0.26366,-0.224605 0.39549,-0.4248 0.39551,-0.600586 l 0,-2.255859" />
  <path
     inkscape:connector-curvature="0"
     id="path3053"
     style="font-size:30px;font-style:normal;font-variant:normal;font-weight:bold;font-stretch:normal;line-height:125%;letter-spacing:0px;word-spacing:0px;fill:#02a2a8;fill-opacity:1;stroke:none;font-family:Linux Biolinum Kb;-inkscape-font-specification:Linux Biolinum Kb Bold"
     d="m 200.09178,25.136719 c -3e-5,1.376949 -0.2637,2.358393 -0.79101,2.944336 -0.52738,0.595697 -1.45511,0.893548 -2.78321,0.893554 l -18.95508,0 c -1.34766,-6e-6 -2.3291,-0.30274 -2.94433,-0.908203 -0.61524,-0.605473 -0.92286,-1.582035 -0.92285,-2.929687 l 0,-21.2695315 c -1e-5,-1.2402144 0.33691,-2.1923619 1.01074,-2.8564453 C 175.38963,0.33693634 176.34177,2.2617188e-5 177.56248,0 l 18.06153,0 c 1.39646,2.2617188e-5 2.4902,0.31740511 3.28125,0.95214844 0.79098,0.63478666 1.18649,1.60646536 1.18652,2.91503906 l 0,21.2695315 M 177.56248,1.0839844 c -0.89844,2.15e-5 -1.5918,0.2392791 -2.08007,0.7177734 -0.47852,0.478536 -0.71778,1.1670118 -0.71778,2.0654297 l 0,20.3466795 c 0,0.878904 0.23437,1.513669 0.70313,1.904297 0.46874,0.390621 1.16698,0.585933 2.09472,0.585938 l 17.15332,0 c 0.89842,-5e-6 1.53806,-0.190434 1.91895,-0.57129 0.38083,-0.380862 0.57126,-1.02051 0.57129,-1.918945 l 0,-20.3466795 c -3e-5,-0.9277147 -0.19534,-1.6210734 -0.58594,-2.0800781 -0.39065,-0.4687287 -1.02541,-0.7031035 -1.9043,-0.703125 l -17.15332,0 m 8.042,12.2314456 c 0.32225,-0.488272 0.74217,-0.927724 1.25976,-1.31836 0.52733,-0.400379 1.03514,-0.600574 1.52344,-0.600586 0.22459,1.2e-5 0.53709,0.05861 0.9375,0.175782 l 0.0879,0.05859 -0.4541,2.109375 -0.17578,0.05859 c -0.26369,-0.2246 -0.69338,-0.336905 -1.28907,-0.336914 -0.13673,9e-6 -0.29298,0.01954 -0.46875,0.05859 -0.16603,0.03907 -0.36622,0.117196 -0.60058,0.234375 -0.23439,0.10743 -0.4297,0.302743 -0.58594,0.585937 -0.15626,0.273446 -0.23439,0.61036 -0.23437,1.010743 l 0,1.96289 c -2e-5,1.708988 0.0683,3.066409 0.20507,4.072266 l -0.0293,0.05859 c -0.57619,-0.03906 -1.1133,-0.05859 -1.61133,-0.05859 l -1.4502,0.05859 0,-0.05859 c 0.14648,-1.025389 0.21972,-2.382809 0.21973,-4.072266 l 0,-1.333008 c -1e-5,-1.367179 -0.11232,-2.685537 -0.33691,-3.955078 l 0.0293,-0.05859 c 0.44921,-0.02929 0.94726,-0.102528 1.49414,-0.219726 0.54686,-0.117177 0.96679,-0.234364 1.25977,-0.351563 0.14647,1.2e-5 0.21971,0.07814 0.21973,0.234375 l -0.0586,1.684571 0.0586,0" />
</svg>
