<svg xmlns="http://www.w3.org/2000/svg" version="1.1" viewBox="0 0 640.4 1000">
    <g transform="matrix(0.62537759,0,0,-0.62537759,-0.7190589,705.88645)">
        <path id="rss" style="fill:currentColor"
            d="M 136.294,209.07 C 61.098,209.07 0.002,147.736 0.002,72.994 c 0,-75.154 61.1,-135.802 136.292,-135.802 75.466,0 136.494,60.648 136.494,135.802 -0.002,74.742 -61.024,136.076 -136.494,136.076 z m -136.138,403 0,-196.258 C 127.94,415.812 248.114,365.84 338.614,275.3 428.998,184.982 478.896,64.264 478.896,-64 l 197.122,0 C 676.016,308.82 372.736,612.07 0.156,612.07 Z M 0.388,960 l 0,-196.356 C 456.17,763.644 827.144,392.31 827.144,-64 L 1024,-64 C 1024,500.47 564.746,960 0.39,960 Z" />
    </g>
</svg>