<svg xmlns="http://www.w3.org/2000/svg" version="1.1" viewBox="0 0 733.84691 1000">
    <g transform="matrix(0.71604588,0,0,-0.71604588,0.1835,746.74449)">
        <path id="linkedin" style="fill:currentColor" d="m 512,128.108 c -19.154,0 -38.308,9.916 -58.142,29.75 -7.81,7.81 -7.81,20.474 0,28.286 7.81,7.808 20.474,7.808 28.286,0 C 494.35,173.934 504.116,168 512,168 c 7.882,0 17.65,5.934 29.858,18.142 7.812,7.808 20.472,7.808 28.286,0 7.81,-7.81 7.81,-20.474 0,-28.286 C 550.308,138.024 531.154,128.108 512,128.108 Z M 0,434.508 c 0,-49.892 4.266,-95.122 12.8,-135.682 8.534,-40.56 20.534,-75.74 36,-105.532 15.466,-29.792 35.022,-55.904 58.666,-78.34 C 131.11,92.518 156.798,74.034 184.532,59.496 212.266,44.96 243.998,33.2 279.732,24.23 315.464,15.256 351.82,8.974 388.798,5.384 425.776,1.794 466.488,0 510.932,0 c 44.444,0 85.242,1.79 122.398,5.38 37.156,3.59 73.602,9.872 109.332,18.846 35.734,8.974 67.558,20.73 95.468,35.266 27.91,14.538 53.778,33.026 77.598,55.458 23.824,22.436 43.47,48.548 58.934,78.34 15.47,29.794 27.56,64.974 36.27,105.532 8.71,40.56 13.066,85.788 13.066,135.68 0,89.38 -27.736,166.372 -83.2,230.982 3.2,8.616 5.954,18.486 8.266,29.614 2.308,11.128 4.532,26.832 6.664,47.112 2.138,20.282 1.336,43.704 -2.398,70.264 -3.734,26.564 -10.754,53.664 -21.066,81.302 l -8,1.618 c -5.332,1.076 -14.042,0.718 -26.132,-1.08 -12.086,-1.794 -26.222,-5.022 -42.398,-9.69 C 839.558,879.96 818.668,870.716 793.066,856.896 767.468,843.078 740.446,825.578 712,804.4 c -48.356,14.718 -115.02,30.116 -200,30.116 -84.976,0 -151.822,-15.396 -200.53,-30.114 -28.446,21.18 -55.556,38.588 -81.334,52.228 -25.78,13.642 -46.402,22.974 -61.868,27.998 -15.468,5.024 -29.778,8.256 -42.934,9.69 -13.156,1.436 -21.602,1.886 -25.334,1.346 -3.732,-0.538 -6.488,-1.166 -8.266,-1.884 C 81.42,866.14 74.31,839.04 70.398,812.476 c -3.91,-26.56 -4.8,-49.892 -2.666,-69.992 2.134,-20.102 4.444,-35.898 6.934,-47.382 C 77.156,683.616 80,673.744 83.2,665.488 27.734,601.238 0,524.246 0,434.508 Z M 136.536,320.596 c 0,58.022 21.332,110.638 64,157.856 12.8,14.406 27.646,25.312 44.534,32.712 16.89,7.402 36.088,11.606 57.6,12.606 21.512,1 42.044,0.8 61.6,-0.6 19.556,-1.402 43.734,-3.302 72.534,-5.702 28.798,-2.404 53.688,-3.602 74.666,-3.602 20.976,0 45.868,1.2 74.664,3.602 28.806,2.4 52.982,4.3 72.536,5.702 19.56,1.4 40.09,1.6 61.602,0.6 21.512,-1.002 40.802,-5.204 57.868,-12.606 17.066,-7.4 32,-18.306 44.8,-32.712 42.664,-47.218 64,-99.834 64,-157.856 0,-34.012 -3.554,-64.324 -10.668,-90.934 -7.11,-26.612 -16.09,-48.916 -26.934,-66.922 -10.844,-18.008 -26.048,-33.218 -45.598,-45.62 -19.558,-12.406 -38.492,-22.01 -56.8,-28.81 -18.312,-6.8 -41.958,-12.104 -70.934,-15.906 -28.982,-3.796 -54.934,-6.102 -77.872,-6.9 -22.934,-0.8 -51.82,-1.2 -86.664,-1.2 -34.844,0 -63.644,0.402 -86.4,1.2 -22.756,0.798 -48.622,3.104 -77.6,6.9 -28.978,3.802 -52.622,9.104 -70.934,15.906 -18.31,6.802 -37.244,16.404 -56.8,28.81 -19.556,12.404 -34.756,27.612 -45.6,45.62 -10.846,18.006 -19.824,40.31 -26.934,66.922 -7.11,26.61 -10.666,56.922 -10.666,90.934 z M 256,351.996 c 0,53.019 28.654,96 64,96 35.346,0 64,-42.981 64,-96 0,-53.019 -28.654,-96 -64,-96 -35.346,0 -64,42.981 -64,96 z m 384,0 c 0,53.019 28.654,96 64,96 35.346,0 64,-42.981 64,-96 0,-53.019 -28.654,-96 -64,-96 -35.346,0 -64,42.981 -64,96 z" />
    </g>
</svg>