<svg xmlns="http://www.w3.org/2000/svg" version="1.1" viewBox="0 0 635.9 1000">
    <path id="github" style="fill:currentColor"
        d="m 69.86134,70.731108 c -39.02193,0 -70.65659,30.295622 -70.65659,67.665782 0,37.37168 31.63466,67.66575 70.65659,67.66575 39.02351,0 70.65656,-30.29407 70.65656,-67.66575 0,-37.37016 -31.63305,-67.665782 -70.65656,-67.665782 z m -70.65659,202.998832 0,473.66186 141.31315,0 0,-473.66186 z m 211.97135,0 0,473.66186 141.31315,0 0,-270.66457 c 0,-37.37018 31.63467,-67.66577 70.65658,-67.66577 39.02192,0 70.65658,30.29559 70.65658,67.66577 l 0,270.66457 141.31316,0 0,-304.49746 c 0,-93.42768 -71.17439,-169.1644 -158.97648,-169.1644 -49.95532,0 -94.50643,45.67908 -123.64984,84.01951 l 0,-84.01951 z" />
</svg>