<?xml version="1.0" encoding="UTF-8" standalone="no"?>
<!-- Created with Inkscape (http://www.inkscape.org/) -->

<svg
   xmlns:dc="http://purl.org/dc/elements/1.1/"
   xmlns:cc="http://creativecommons.org/ns#"
   xmlns:rdf="http://www.w3.org/1999/02/22-rdf-syntax-ns#"
   xmlns:svg="http://www.w3.org/2000/svg"
   xmlns="http://www.w3.org/2000/svg"
   xmlns:sodipodi="http://sodipodi.sourceforge.net/DTD/sodipodi-0.dtd"
   xmlns:inkscape="http://www.inkscape.org/namespaces/inkscape"
   inkscape:version="0.91 r13725"
   version="1.1"
   id="svg2"
   height="1000"
   width="640.40002"
   sodipodi:docname="feed.svg"
   viewBox="0 0 640.40002 1000">
  <sodipodi:namedview
     id="base"
     pagecolor="#ffffff"
     bordercolor="#666666"
     borderopacity="1.0"
     inkscape:pageopacity="0.0"
     inkscape:pageshadow="2"
     inkscape:zoom="0.537"
     inkscape:cx="577.28119"
     inkscape:cy="648.97579"
     inkscape:document-units="px"
     inkscape:current-layer="svg2"
     showgrid="false"
     inkscape:window-width="1440"
     inkscape:window-height="855"
     inkscape:window-x="0"
     inkscape:window-y="1"
     inkscape:window-maximized="1"
     showborder="true"
     inkscape:showpageshadow="false">
    <sodipodi:guide
       id="guide45"
       inkscape:label="baseline"
       position="0,253"
       orientation="0,1" />
    <sodipodi:guide
       id="guide47"
       inkscape:label="ascender"
       position="0,945"
       orientation="0,1" />
    <sodipodi:guide
       id="guide49"
       inkscape:label="caps"
       position="0,896"
       orientation="0,1" />
    <sodipodi:guide
       id="guide51"
       inkscape:label="xheight"
       position="0,729"
       orientation="0,1" />
    <sodipodi:guide
       id="guide53"
       inkscape:label="descender"
       position="0,28"
       orientation="0,1" />
  </sodipodi:namedview>
  <defs
     id="defs4" />
  <metadata
     id="metadata7">
    <rdf:RDF>
      <cc:Work
         rdf:about="">
        <dc:format>image/svg+xml</dc:format>
        <dc:type
           rdf:resource="http://purl.org/dc/dcmitype/StillImage" />
        <dc:title></dc:title>
      </cc:Work>
    </rdf:RDF>
  </metadata>
  <g
     id="layer1"
     inkscape:groupmode="layer"
     inkscape:label="Layer 1" />
  <g
     id="g6792"
     transform="matrix(0.62537759,0,0,-0.62537759,-0.7190589,705.88645)">
    <path
       id="path6794"
       d="M 136.294,209.07 C 61.098,209.07 0.002,147.736 0.002,72.994 c 0,-75.154 61.1,-135.802 136.292,-135.802 75.466,0 136.494,60.648 136.494,135.802 -0.002,74.742 -61.024,136.076 -136.494,136.076 z m -136.138,403 0,-196.258 C 127.94,415.812 248.114,365.84 338.614,275.3 428.998,184.982 478.896,64.264 478.896,-64 l 197.122,0 C 676.016,308.82 372.736,612.07 0.156,612.07 Z M 0.388,960 l 0,-196.356 C 456.17,763.644 827.144,392.31 827.144,-64 L 1024,-64 C 1024,500.47 564.746,960 0.39,960 Z"
       inkscape:connector-curvature="0"
       style="fill:currentColor" />
  </g>
</svg>
