<?xml version="1.0" encoding="UTF-8" standalone="no"?>
<!-- Created with Inkscape (http://www.inkscape.org/) -->

<svg
   xmlns:dc="http://purl.org/dc/elements/1.1/"
   xmlns:cc="http://creativecommons.org/ns#"
   xmlns:rdf="http://www.w3.org/1999/02/22-rdf-syntax-ns#"
   xmlns:svg="http://www.w3.org/2000/svg"
   xmlns="http://www.w3.org/2000/svg"
   xmlns:sodipodi="http://sodipodi.sourceforge.net/DTD/sodipodi-0.dtd"
   xmlns:inkscape="http://www.inkscape.org/namespaces/inkscape"
   inkscape:version="0.91 r13725"
   version="1.1"
   id="svg2"
   height="1000"
   width="676"
   sodipodi:docname="twitter.svg"
   viewBox="0 0 675.99999 1000">
  <sodipodi:namedview
     id="base"
     pagecolor="#ffffff"
     bordercolor="#666666"
     borderopacity="1.0"
     inkscape:pageopacity="0.0"
     inkscape:pageshadow="2"
     inkscape:zoom="0.537"
     inkscape:cx="577.28119"
     inkscape:cy="648.97579"
     inkscape:document-units="px"
     inkscape:current-layer="svg2"
     showgrid="false"
     inkscape:window-width="1440"
     inkscape:window-height="855"
     inkscape:window-x="0"
     inkscape:window-y="1"
     inkscape:window-maximized="1"
     showborder="true"
     inkscape:showpageshadow="false">
    <sodipodi:guide
       id="guide45"
       inkscape:label="baseline"
       position="0,253"
       orientation="0,1" />
    <sodipodi:guide
       id="guide47"
       inkscape:label="ascender"
       position="0,945"
       orientation="0,1" />
    <sodipodi:guide
       id="guide49"
       inkscape:label="caps"
       position="0,896"
       orientation="0,1" />
    <sodipodi:guide
       id="guide51"
       inkscape:label="xheight"
       position="0,729"
       orientation="0,1" />
    <sodipodi:guide
       id="guide53"
       inkscape:label="descender"
       position="0,28"
       orientation="0,1" />
  </sodipodi:namedview>
  <defs
     id="defs4" />
  <metadata
     id="metadata7">
    <rdf:RDF>
      <cc:Work
         rdf:about="">
        <dc:format>image/svg+xml</dc:format>
        <dc:type
           rdf:resource="http://purl.org/dc/dcmitype/StillImage" />
        <dc:title></dc:title>
      </cc:Work>
    </rdf:RDF>
  </metadata>
  <g
     id="layer1"
     inkscape:groupmode="layer"
     inkscape:label="Layer 1" />
  <g
     id="g7460"
     transform="matrix(0.76951396,0,0,-0.76951396,-32.170244,771.46183)">
    <path
       id="path7462"
       d="m 1024,765.582 c -37.676,-16.708 -78.164,-28.002 -120.66,-33.08 43.372,26 76.686,67.17 92.372,116.23 -40.596,-24.078 -85.556,-41.56 -133.41,-50.98 -38.32,40.83 -92.922,66.34 -153.346,66.34 -116.022,0 -210.088,-94.058 -210.088,-210.078 0,-16.466 1.858,-32.5 5.44,-47.878 -174.6,8.764 -329.402,92.4 -433.018,219.506 -18.084,-31.028 -28.446,-67.116 -28.446,-105.618 0,-72.888 37.088,-137.192 93.46,-174.866 -34.438,1.092 -66.832,10.542 -95.154,26.278 -0.02,-0.876 -0.02,-1.756 -0.02,-2.642 0,-101.788 72.418,-186.696 168.522,-206 -17.626,-4.8 -36.188,-7.372 -55.348,-7.372 -13.538,0 -26.698,1.32 -39.528,3.772 26.736,-83.46 104.32,-144.206 196.252,-145.896 -71.9,-56.35 -162.486,-89.934 -260.916,-89.934 -16.958,0 -33.68,0.994 -50.116,2.94 92.972,-59.61 203.402,-94.394 322.042,-94.394 386.422,0 597.736,320.124 597.736,597.744 0,9.108 -0.206,18.168 -0.61,27.18 41.056,29.62 76.672,66.62 104.836,108.748 z"
       inkscape:connector-curvature="0"
       style="fill:currentColor" />
  </g>
</svg>
